<svg width="32" height="32" viewBox="0 0 32 32" fill="none" xmlns="http://www.w3.org/2000/svg">
<path d="M28.875 0C30.6009 0 32 1.39911 32 3.125V28.875C32 30.6009 30.6009 32 28.875 32H3.125C1.39911 32 0 30.6009 0 28.875V3.125C0 1.39911 1.39911 0 3.125 0H28.875ZM5.66016 4.16016C4.83173 4.16016 4.16016 4.83173 4.16016 5.66016V24.6602C4.16016 25.4886 4.83173 26.1602 5.66016 26.1602H12.4199C13.2483 26.1602 13.9199 25.4886 13.9199 24.6602V5.66016C13.9199 4.83173 13.2483 4.16016 12.4199 4.16016H5.66016ZM19.5801 4.16016C18.7517 4.16016 18.0801 4.83173 18.0801 5.66016V16.6602C18.0801 17.4886 18.7517 18.1602 19.5801 18.1602H26.3398C27.1683 18.1602 27.8398 17.4886 27.8398 16.6602V5.66016C27.8398 4.83173 27.1683 4.16016 26.3398 4.16016H19.5801Z" fill="#CCCCCC"/>
</svg>
